<mxfile>
    <diagram id="Chz7LX6HWvREofruiTzN" name="Page-1">
        <mxGraphModel dx="1555" dy="1015" grid="1" gridSize="10" guides="1" tooltips="1" connect="1" arrows="1" fold="1" page="0" pageScale="1" pageWidth="827" pageHeight="1169" math="0" shadow="0">
            <root>
                <mxCell id="0"/>
                <mxCell id="1" parent="0"/>
                <mxCell id="3" value="worker" style="rounded=0;whiteSpace=wrap;html=1;" parent="1" vertex="1">
                    <mxGeometry x="1360" y="70" width="120" height="60" as="geometry"/>
                </mxCell>
                <mxCell id="5" value="MasterServer" style="rounded=0;whiteSpace=wrap;html=1;" parent="1" vertex="1">
                    <mxGeometry x="-80" y="-240" width="100" height="600" as="geometry"/>
                </mxCell>
                <mxCell id="6" value="NettyRemotingServer" style="rounded=0;whiteSpace=wrap;html=1;" parent="1" vertex="1">
                    <mxGeometry x="20" y="-240" width="150" height="200" as="geometry"/>
                </mxCell>
                <mxCell id="7" value="TaskResponseProcesser" style="rounded=0;whiteSpace=wrap;html=1;" parent="1" vertex="1">
                    <mxGeometry x="170" y="-240" width="160" height="80" as="geometry"/>
                </mxCell>
                <mxCell id="8" value="TaskAckProcesser" style="rounded=0;whiteSpace=wrap;html=1;" parent="1" vertex="1">
                    <mxGeometry x="170" y="-160" width="160" height="80" as="geometry"/>
                </mxCell>
                <mxCell id="9" value="TaskKillResponseProcesser" style="rounded=0;whiteSpace=wrap;html=1;" parent="1" vertex="1">
                    <mxGeometry x="170" y="-80" width="160" height="40" as="geometry"/>
                </mxCell>
                <mxCell id="10" value="MasterSchedulerService" style="rounded=0;whiteSpace=wrap;html=1;" parent="1" vertex="1">
                    <mxGeometry x="20" y="-40" width="150" height="280" as="geometry"/>
                </mxCell>
                <mxCell id="11" value="QuartzExecutors" style="rounded=0;whiteSpace=wrap;html=1;" parent="1" vertex="1">
                    <mxGeometry x="20" y="320" width="150" height="40" as="geometry"/>
                </mxCell>
                <mxCell id="12" value="MasterRegistry" style="rounded=0;whiteSpace=wrap;html=1;" parent="1" vertex="1">
                    <mxGeometry x="20" y="240" width="150" height="40" as="geometry"/>
                </mxCell>
                <mxCell id="13" value="ZKMasterClient" style="rounded=0;whiteSpace=wrap;html=1;" parent="1" vertex="1">
                    <mxGeometry x="20" y="280" width="150" height="40" as="geometry"/>
                </mxCell>
                <mxCell id="15" value="ProcessService" style="rounded=0;whiteSpace=wrap;html=1;" parent="1" vertex="1">
                    <mxGeometry x="170" y="160" width="160" height="40" as="geometry"/>
                </mxCell>
                <mxCell id="16" value="ZKMasterClient" style="rounded=0;whiteSpace=wrap;html=1;" parent="1" vertex="1">
                    <mxGeometry x="170" y="200" width="160" height="40" as="geometry"/>
                </mxCell>
                <mxCell id="17" value="NettyRemotingClient?" style="rounded=0;whiteSpace=wrap;html=1;" parent="1" vertex="1">
                    <mxGeometry x="170" y="240" width="160" height="40" as="geometry"/>
                </mxCell>
                <mxCell id="18" value="masterExecService&lt;br&gt;(ThreadPoolExecutor)" style="rounded=0;whiteSpace=wrap;html=1;" parent="1" vertex="1">
                    <mxGeometry x="170" y="-40" width="160" height="200" as="geometry"/>
                </mxCell>
                <mxCell id="19" value="MasterExecThread" style="rounded=0;whiteSpace=wrap;html=1;" parent="1" vertex="1">
                    <mxGeometry x="330" y="-40" width="170" height="200" as="geometry"/>
                </mxCell>
                <mxCell id="20" value="SubProcessTaskExecThread" style="rounded=0;whiteSpace=wrap;html=1;" parent="1" vertex="1">
                    <mxGeometry x="500" y="-40" width="180" height="40" as="geometry"/>
                </mxCell>
                <mxCell id="21" value="DependentTaskExecThread" style="rounded=0;whiteSpace=wrap;html=1;" parent="1" vertex="1">
                    <mxGeometry x="500" width="180" height="40" as="geometry"/>
                </mxCell>
                <mxCell id="22" value="ConditionsTaskExecThread" style="rounded=0;whiteSpace=wrap;html=1;" parent="1" vertex="1">
                    <mxGeometry x="500" y="40" width="180" height="40" as="geometry"/>
                </mxCell>
                <mxCell id="23" value="MasterTaskExecThread" style="rounded=0;whiteSpace=wrap;html=1;" parent="1" vertex="1">
                    <mxGeometry x="500" y="80" width="180" height="40" as="geometry"/>
                </mxCell>
                <mxCell id="24" value="TaskInstanceCacheManager" style="rounded=0;whiteSpace=wrap;html=1;" parent="1" vertex="1">
                    <mxGeometry x="330" y="-200" width="170" height="40" as="geometry"/>
                </mxCell>
                <mxCell id="25" value="TaskResponseService" style="rounded=0;whiteSpace=wrap;html=1;" parent="1" vertex="1">
                    <mxGeometry x="330" y="-240" width="170" height="40" as="geometry"/>
                </mxCell>
                <mxCell id="26" value="TaskInstanceCacheManager" style="rounded=0;whiteSpace=wrap;html=1;" parent="1" vertex="1">
                    <mxGeometry x="330" y="-120" width="170" height="40" as="geometry"/>
                </mxCell>
                <mxCell id="27" value="TaskResponseService" style="rounded=0;whiteSpace=wrap;html=1;" parent="1" vertex="1">
                    <mxGeometry x="330" y="-160" width="170" height="40" as="geometry"/>
                </mxCell>
                <mxCell id="28" value="&lt;h1&gt;Get one command to run&lt;/h1&gt;&lt;p&gt;This procedure is in MasterSchedulerService's run loop&amp;nbsp;&lt;/p&gt;" style="text;html=1;strokeColor=none;fillColor=none;spacing=5;spacingTop=-20;whiteSpace=wrap;overflow=hidden;rounded=0;" parent="1" vertex="1">
                    <mxGeometry x="-80" y="610" width="360" height="120" as="geometry"/>
                </mxCell>
                <mxCell id="29" value=":MasterSchedulerService" style="shape=umlLifeline;perimeter=lifelinePerimeter;whiteSpace=wrap;html=1;container=1;collapsible=0;recursiveResize=0;outlineConnect=0;" parent="1" vertex="1">
                    <mxGeometry x="320" y="670" width="160" height="1050" as="geometry"/>
                </mxCell>
                <mxCell id="35" value="check master note's resource(cpu &amp;amp; memory), if too high, print log, sleep" style="rhombus;whiteSpace=wrap;html=1;" parent="29" vertex="1">
                    <mxGeometry x="40" y="160" width="80" height="80" as="geometry"/>
                </mxCell>
                <mxCell id="38" value="get one command" style="html=1;" parent="29" vertex="1">
                    <mxGeometry x="25" y="360" width="110" height="40" as="geometry"/>
                </mxCell>
                <mxCell id="41" value="release zk lock" style="html=1;" parent="29" vertex="1">
                    <mxGeometry x="30" y="959" width="100" height="40" as="geometry"/>
                </mxCell>
                <mxCell id="53" value="checkThreadNum" style="rhombus;whiteSpace=wrap;html=1;" parent="29" vertex="1">
                    <mxGeometry x="90" y="550" width="80" height="80" as="geometry"/>
                </mxCell>
                <mxCell id="31" value="loop" style="html=1;" parent="1" vertex="1">
                    <mxGeometry x="350" y="750" width="100" height="40" as="geometry"/>
                </mxCell>
                <mxCell id="46" style="edgeStyle=orthogonalEdgeStyle;rounded=0;orthogonalLoop=1;jettySize=auto;html=1;" parent="1" source="33" target="43" edge="1">
                    <mxGeometry relative="1" as="geometry"/>
                </mxCell>
                <mxCell id="33" value="get zk lock" style="html=1;" parent="1" vertex="1">
                    <mxGeometry x="360" y="950" width="80" height="40" as="geometry"/>
                </mxCell>
                <mxCell id="36" style="edgeStyle=orthogonalEdgeStyle;rounded=0;orthogonalLoop=1;jettySize=auto;html=1;entryX=0;entryY=0.5;entryDx=0;entryDy=0;" parent="1" source="35" target="31" edge="1">
                    <mxGeometry relative="1" as="geometry">
                        <Array as="points">
                            <mxPoint x="190" y="870"/>
                            <mxPoint x="190" y="770"/>
                        </Array>
                    </mxGeometry>
                </mxCell>
                <mxCell id="37" value=":Database" style="shape=umlLifeline;perimeter=lifelinePerimeter;whiteSpace=wrap;html=1;container=1;collapsible=0;recursiveResize=0;outlineConnect=0;" parent="1" vertex="1">
                    <mxGeometry x="1452" y="670" width="106" height="1050" as="geometry"/>
                </mxCell>
                <mxCell id="62" value="t_ds_command" style="html=1;" parent="37" vertex="1">
                    <mxGeometry x="3" y="620" width="100" height="40" as="geometry"/>
                </mxCell>
                <mxCell id="66" value="t_ds_process_instance" style="html=1;" parent="37" vertex="1">
                    <mxGeometry x="-17" y="730" width="140" height="40" as="geometry"/>
                </mxCell>
                <mxCell id="49" style="edgeStyle=orthogonalEdgeStyle;rounded=0;orthogonalLoop=1;jettySize=auto;html=1;exitX=0;exitY=0.75;exitDx=0;exitDy=0;entryX=1;entryY=0.75;entryDx=0;entryDy=0;dashed=1" parent="1" source="39" target="38" edge="1">
                    <mxGeometry relative="1" as="geometry"/>
                </mxCell>
                <mxCell id="39" value="t_ds_command" style="html=1;" parent="1" vertex="1">
                    <mxGeometry x="1455" y="1030" width="100" height="40" as="geometry"/>
                </mxCell>
                <mxCell id="40" value="" style="edgeStyle=orthogonalEdgeStyle;rounded=0;orthogonalLoop=1;jettySize=auto;html=1;" parent="1" source="38" target="39" edge="1">
                    <mxGeometry x="0.0545" relative="1" as="geometry">
                        <mxPoint as="offset"/>
                    </mxGeometry>
                </mxCell>
                <mxCell id="42" value=":ZooKeeper" style="shape=umlLifeline;perimeter=lifelinePerimeter;whiteSpace=wrap;html=1;container=1;collapsible=0;recursiveResize=0;outlineConnect=0;" parent="1" vertex="1">
                    <mxGeometry x="1195" y="670" width="100" height="1050" as="geometry"/>
                </mxCell>
                <mxCell id="43" value="/dolphinscheduler/lock/masters" style="html=1;" parent="1" vertex="1">
                    <mxGeometry x="1157.5" y="950" width="175" height="40" as="geometry"/>
                </mxCell>
                <mxCell id="44" value="/dolphinscheduler/lock/masters" style="html=1;" parent="1" vertex="1">
                    <mxGeometry x="1157.5" y="1629" width="175" height="40" as="geometry"/>
                </mxCell>
                <mxCell id="45" style="edgeStyle=orthogonalEdgeStyle;rounded=0;orthogonalLoop=1;jettySize=auto;html=1;" parent="1" source="41" target="44" edge="1">
                    <mxGeometry relative="1" as="geometry"/>
                </mxCell>
                <mxCell id="47" style="edgeStyle=orthogonalEdgeStyle;rounded=0;orthogonalLoop=1;jettySize=auto;html=1;entryX=0;entryY=0.5;entryDx=0;entryDy=0;" parent="1" source="41" target="31" edge="1">
                    <mxGeometry relative="1" as="geometry">
                        <Array as="points">
                            <mxPoint x="190" y="1649"/>
                            <mxPoint x="190" y="770"/>
                        </Array>
                    </mxGeometry>
                </mxCell>
                <mxCell id="48" value=":masterExecService" style="shape=umlLifeline;perimeter=lifelinePerimeter;whiteSpace=wrap;html=1;container=1;collapsible=0;recursiveResize=0;outlineConnect=0;" parent="1" vertex="1">
                    <mxGeometry x="897" y="670" width="120" height="1050" as="geometry"/>
                </mxCell>
                <mxCell id="76" style="edgeStyle=orthogonalEdgeStyle;rounded=0;orthogonalLoop=1;jettySize=auto;html=1;exitX=0.25;exitY=1;exitDx=0;exitDy=0;entryX=0;entryY=0.5;entryDx=0;entryDy=0;" parent="1" source="50" target="51" edge="1">
                    <mxGeometry relative="1" as="geometry"/>
                </mxCell>
                <mxCell id="77" style="edgeStyle=orthogonalEdgeStyle;rounded=0;orthogonalLoop=1;jettySize=auto;html=1;exitX=0.25;exitY=1;exitDx=0;exitDy=0;entryX=0;entryY=0.5;entryDx=0;entryDy=0;" parent="1" source="50" target="53" edge="1">
                    <mxGeometry relative="1" as="geometry"/>
                </mxCell>
                <mxCell id="50" value="handle command" style="html=1;" parent="1" vertex="1">
                    <mxGeometry x="345" y="1110" width="110" height="40" as="geometry"/>
                </mxCell>
                <mxCell id="51" value="construct process instance" style="html=1;" parent="1" vertex="1">
                    <mxGeometry x="410" y="1160" width="170" height="40" as="geometry"/>
                </mxCell>
                <mxCell id="59" style="edgeStyle=orthogonalEdgeStyle;rounded=0;orthogonalLoop=1;jettySize=auto;html=1;exitX=0.25;exitY=1;exitDx=0;exitDy=0;entryX=0;entryY=0.5;entryDx=0;entryDy=0;" parent="1" source="56" target="58" edge="1">
                    <mxGeometry relative="1" as="geometry"/>
                </mxCell>
                <mxCell id="61" style="edgeStyle=orthogonalEdgeStyle;rounded=0;orthogonalLoop=1;jettySize=auto;html=1;exitX=0.25;exitY=1;exitDx=0;exitDy=0;entryX=0;entryY=0.5;entryDx=0;entryDy=0;" parent="1" source="56" target="60" edge="1">
                    <mxGeometry relative="1" as="geometry"/>
                </mxCell>
                <mxCell id="56" value="set waiting thread process" style="html=1;" parent="1" vertex="1">
                    <mxGeometry x="530" y="1240" width="170" height="40" as="geometry"/>
                </mxCell>
                <mxCell id="57" style="edgeStyle=orthogonalEdgeStyle;rounded=0;orthogonalLoop=1;jettySize=auto;html=1;" parent="1" source="53" target="56" edge="1">
                    <mxGeometry relative="1" as="geometry"/>
                </mxCell>
                <mxCell id="63" style="edgeStyle=orthogonalEdgeStyle;rounded=0;orthogonalLoop=1;jettySize=auto;html=1;entryX=0;entryY=0.5;entryDx=0;entryDy=0;" parent="1" source="58" target="62" edge="1">
                    <mxGeometry relative="1" as="geometry"/>
                </mxCell>
                <mxCell id="58" value="delete old command" style="html=1;" parent="1" vertex="1">
                    <mxGeometry x="610" y="1290" width="130" height="40" as="geometry"/>
                </mxCell>
                <mxCell id="65" style="edgeStyle=orthogonalEdgeStyle;rounded=0;orthogonalLoop=1;jettySize=auto;html=1;" parent="1" source="60" target="64" edge="1">
                    <mxGeometry relative="1" as="geometry"/>
                </mxCell>
                <mxCell id="60" value="create new waiting thread command" style="html=1;" parent="1" vertex="1">
                    <mxGeometry x="610" y="1340" width="210" height="40" as="geometry"/>
                </mxCell>
                <mxCell id="64" value="t_ds_command" style="html=1;" parent="1" vertex="1">
                    <mxGeometry x="1455" y="1340" width="100" height="40" as="geometry"/>
                </mxCell>
                <mxCell id="68" style="edgeStyle=orthogonalEdgeStyle;rounded=0;orthogonalLoop=1;jettySize=auto;html=1;entryX=0;entryY=0.5;entryDx=0;entryDy=0;" parent="1" source="67" target="66" edge="1">
                    <mxGeometry relative="1" as="geometry"/>
                </mxCell>
                <mxCell id="67" value="save process instance" style="html=1;" parent="1" vertex="1">
                    <mxGeometry x="490" y="1400" width="140" height="40" as="geometry"/>
                </mxCell>
                <mxCell id="69" style="edgeStyle=orthogonalEdgeStyle;rounded=0;orthogonalLoop=1;jettySize=auto;html=1;exitX=0.5;exitY=1;exitDx=0;exitDy=0;entryX=0;entryY=0.5;entryDx=0;entryDy=0;" parent="1" source="53" target="67" edge="1">
                    <mxGeometry relative="1" as="geometry"/>
                </mxCell>
                <mxCell id="70" value="delete command by id" style="html=1;" parent="1" vertex="1">
                    <mxGeometry x="490" y="1450" width="140" height="40" as="geometry"/>
                </mxCell>
                <mxCell id="71" style="edgeStyle=orthogonalEdgeStyle;rounded=0;orthogonalLoop=1;jettySize=auto;html=1;entryX=0;entryY=0.5;entryDx=0;entryDy=0;" parent="1" source="53" target="70" edge="1">
                    <mxGeometry relative="1" as="geometry"/>
                </mxCell>
                <mxCell id="74" style="edgeStyle=orthogonalEdgeStyle;rounded=0;orthogonalLoop=1;jettySize=auto;html=1;" parent="1" source="72" target="73" edge="1">
                    <mxGeometry relative="1" as="geometry"/>
                </mxCell>
                <mxCell id="78" value="process instance" style="edgeLabel;html=1;align=center;verticalAlign=middle;resizable=0;points=[];" parent="74" vertex="1" connectable="0">
                    <mxGeometry x="-0.1531" y="5" relative="1" as="geometry">
                        <mxPoint x="40" y="5" as="offset"/>
                    </mxGeometry>
                </mxCell>
                <mxCell id="72" value="execute" style="html=1;" parent="1" vertex="1">
                    <mxGeometry x="365" y="1520" width="70" height="40" as="geometry"/>
                </mxCell>
                <mxCell id="73" value="MasterExecThread" style="html=1;" parent="1" vertex="1">
                    <mxGeometry x="896" y="1520" width="122" height="40" as="geometry"/>
                </mxCell>
                <mxCell id="79" value="&lt;h1&gt;Execute Process&lt;/h1&gt;&lt;p&gt;This procedure runs in MasterExecThread&amp;nbsp;&lt;/p&gt;" style="text;html=1;strokeColor=none;fillColor=none;spacing=5;spacingTop=-20;whiteSpace=wrap;overflow=hidden;rounded=0;" parent="1" vertex="1">
                    <mxGeometry x="-80" y="1840" width="360" height="120" as="geometry"/>
                </mxCell>
                <mxCell id="80" value=":MasterExecThread" style="shape=umlLifeline;perimeter=lifelinePerimeter;whiteSpace=wrap;html=1;container=1;collapsible=0;recursiveResize=0;outlineConnect=0;" parent="1" vertex="1">
                    <mxGeometry x="350" y="1920" width="120" height="1080" as="geometry"/>
                </mxCell>
                <mxCell id="81" value="loop for&lt;br&gt;process instance not finished" style="html=1;" parent="1" vertex="1">
                    <mxGeometry x="325" y="2137" width="170" height="40" as="geometry"/>
                </mxCell>
                <mxCell id="91" style="edgeStyle=orthogonalEdgeStyle;rounded=0;orthogonalLoop=1;jettySize=auto;html=1;exitX=0.25;exitY=1;exitDx=0;exitDy=0;entryX=0;entryY=0.5;entryDx=0;entryDy=0;" edge="1" parent="1" source="82" target="90">
                    <mxGeometry relative="1" as="geometry"/>
                </mxCell>
                <mxCell id="82" value="for every&lt;br&gt;running tasks" style="html=1;" parent="1" vertex="1">
                    <mxGeometry x="343.75" y="2302" width="132.5" height="40" as="geometry"/>
                </mxCell>
                <mxCell id="83" value="create task instance&lt;br&gt;add to readyToSubmitTaskList" style="html=1;" parent="1" vertex="1">
                    <mxGeometry x="420" y="2060" width="202.5" height="40" as="geometry"/>
                </mxCell>
                <mxCell id="84" value="warning for process timeout" style="html=1;" parent="1" vertex="1">
                    <mxGeometry x="328.75" y="2217" width="162.5" height="40" as="geometry"/>
                </mxCell>
                <mxCell id="93" style="edgeStyle=orthogonalEdgeStyle;rounded=0;orthogonalLoop=1;jettySize=auto;html=1;entryX=0;entryY=0.5;entryDx=0;entryDy=0;" edge="1" parent="1" source="90" target="92">
                    <mxGeometry relative="1" as="geometry"/>
                </mxCell>
                <mxCell id="90" value="is done" style="rhombus;whiteSpace=wrap;html=1;" vertex="1" parent="1">
                    <mxGeometry x="420" y="2351" width="80" height="80" as="geometry"/>
                </mxCell>
                <mxCell id="97" style="edgeStyle=orthogonalEdgeStyle;rounded=0;orthogonalLoop=1;jettySize=auto;html=1;exitX=0.25;exitY=1;exitDx=0;exitDy=0;entryX=0;entryY=0.5;entryDx=0;entryDy=0;" edge="1" parent="1" source="92" target="96">
                    <mxGeometry relative="1" as="geometry"/>
                </mxCell>
                <mxCell id="92" value="for ever post tasks" style="html=1;" vertex="1" parent="1">
                    <mxGeometry x="540" y="2371" width="130" height="40" as="geometry"/>
                </mxCell>
                <mxCell id="95" style="edgeStyle=orthogonalEdgeStyle;rounded=0;orthogonalLoop=1;jettySize=auto;html=1;exitX=0.25;exitY=1;exitDx=0;exitDy=0;entryX=0;entryY=0.5;entryDx=0;entryDy=0;" edge="1" parent="1" source="94" target="83">
                    <mxGeometry relative="1" as="geometry"/>
                </mxCell>
                <mxCell id="94" value="for ever start nodes" style="html=1;" vertex="1" parent="1">
                    <mxGeometry x="348.13" y="2000" width="123.75" height="40" as="geometry"/>
                </mxCell>
                <mxCell id="99" style="edgeStyle=orthogonalEdgeStyle;rounded=0;orthogonalLoop=1;jettySize=auto;html=1;entryX=0;entryY=0.5;entryDx=0;entryDy=0;" edge="1" parent="1" source="96" target="98">
                    <mxGeometry relative="1" as="geometry"/>
                </mxCell>
                <mxCell id="96" value="can submit" style="rhombus;whiteSpace=wrap;html=1;" vertex="1" parent="1">
                    <mxGeometry x="610" y="2420" width="80" height="80" as="geometry"/>
                </mxCell>
                <mxCell id="98" value="create task instance&lt;br&gt;add to readyToSubmitTaskList" style="html=1;" vertex="1" parent="1">
                    <mxGeometry x="730" y="2440" width="202.5" height="40" as="geometry"/>
                </mxCell>
                <mxCell id="102" style="edgeStyle=orthogonalEdgeStyle;rounded=0;orthogonalLoop=1;jettySize=auto;html=1;entryX=0;entryY=0.5;entryDx=0;entryDy=0;" edge="1" parent="1" source="100" target="101">
                    <mxGeometry relative="1" as="geometry"/>
                </mxCell>
                <mxCell id="100" value="check master note's resource(cpu &amp;amp; memory), if too high, print log, sleep" style="rhombus;whiteSpace=wrap;html=1;" vertex="1" parent="1">
                    <mxGeometry x="370" y="2537" width="80" height="80" as="geometry"/>
                </mxCell>
                <mxCell id="105" style="edgeStyle=orthogonalEdgeStyle;rounded=0;orthogonalLoop=1;jettySize=auto;html=1;exitX=0.25;exitY=1;exitDx=0;exitDy=0;entryX=0;entryY=0.5;entryDx=0;entryDy=0;" edge="1" parent="1" source="101" target="104">
                    <mxGeometry relative="1" as="geometry"/>
                </mxCell>
                <mxCell id="101" value="for every task in readyToSubmitTaskList" style="html=1;" vertex="1" parent="1">
                    <mxGeometry x="497.5" y="2557" width="232.5" height="40" as="geometry"/>
                </mxCell>
                <mxCell id="107" style="edgeStyle=orthogonalEdgeStyle;rounded=0;orthogonalLoop=1;jettySize=auto;html=1;entryX=0;entryY=0.5;entryDx=0;entryDy=0;" edge="1" parent="1" source="104" target="106">
                    <mxGeometry relative="1" as="geometry"/>
                </mxCell>
                <mxCell id="109" style="edgeStyle=orthogonalEdgeStyle;rounded=0;orthogonalLoop=1;jettySize=auto;html=1;exitX=1;exitY=0.5;exitDx=0;exitDy=0;entryX=0;entryY=0.5;entryDx=0;entryDy=0;" edge="1" parent="1" source="104" target="108">
                    <mxGeometry relative="1" as="geometry"/>
                </mxCell>
                <mxCell id="104" value="depend result is SUCCESS" style="rhombus;whiteSpace=wrap;html=1;" vertex="1" parent="1">
                    <mxGeometry x="594" y="2609" width="80" height="80" as="geometry"/>
                </mxCell>
                <mxCell id="116" style="edgeStyle=orthogonalEdgeStyle;rounded=0;orthogonalLoop=1;jettySize=auto;html=1;" edge="1" parent="1" source="106" target="115">
                    <mxGeometry relative="1" as="geometry"/>
                </mxCell>
                <mxCell id="106" value="submit task" style="html=1;" vertex="1" parent="1">
                    <mxGeometry x="740" y="2629" width="90" height="40" as="geometry"/>
                </mxCell>
                <mxCell id="108" value="remove task from readyToSubmitTaskList" style="html=1;" vertex="1" parent="1">
                    <mxGeometry x="740" y="2689" width="240" height="40" as="geometry"/>
                </mxCell>
                <mxCell id="110" value=":taskExecService" style="shape=umlLifeline;perimeter=lifelinePerimeter;whiteSpace=wrap;html=1;container=1;collapsible=0;recursiveResize=0;outlineConnect=0;" vertex="1" parent="1">
                    <mxGeometry x="1216" y="1920" width="114" height="1080" as="geometry"/>
                </mxCell>
                <mxCell id="111" value="&lt;h1&gt;Execute SubProcess&lt;/h1&gt;&lt;p&gt;T&lt;/p&gt;" style="text;html=1;strokeColor=none;fillColor=none;spacing=5;spacingTop=-20;whiteSpace=wrap;overflow=hidden;rounded=0;" vertex="1" parent="1">
                    <mxGeometry x="-80" y="3310" width="360" height="120" as="geometry"/>
                </mxCell>
                <mxCell id="112" value="&lt;h1&gt;Process status&lt;/h1&gt;&lt;p&gt;T&lt;/p&gt;" style="text;html=1;strokeColor=none;fillColor=none;spacing=5;spacingTop=-20;whiteSpace=wrap;overflow=hidden;rounded=0;" vertex="1" parent="1">
                    <mxGeometry x="-80" y="3540" width="360" height="120" as="geometry"/>
                </mxCell>
                <mxCell id="113" value="ExecutorService" style="rounded=0;whiteSpace=wrap;html=1;" vertex="1" parent="1">
                    <mxGeometry x="500" y="120" width="180" height="40" as="geometry"/>
                </mxCell>
                <mxCell id="114" value="taskExecService" style="rounded=0;whiteSpace=wrap;html=1;" vertex="1" parent="1">
                    <mxGeometry x="680" y="120" width="160" height="40" as="geometry"/>
                </mxCell>
                <mxCell id="115" value="MasterTaskExecThread" style="html=1;" vertex="1" parent="1">
                    <mxGeometry x="1163" y="2629" width="220" height="40" as="geometry"/>
                </mxCell>
                <mxCell id="118" style="edgeStyle=orthogonalEdgeStyle;rounded=0;orthogonalLoop=1;jettySize=auto;html=1;entryX=0;entryY=0.5;entryDx=0;entryDy=0;" edge="1" parent="1" source="117" target="81">
                    <mxGeometry relative="1" as="geometry">
                        <Array as="points">
                            <mxPoint x="410" y="2850"/>
                            <mxPoint x="220" y="2850"/>
                            <mxPoint x="220" y="2157"/>
                        </Array>
                    </mxGeometry>
                </mxCell>
                <mxCell id="117" value="update process instance state" style="html=1;" vertex="1" parent="1">
                    <mxGeometry x="316.88" y="2780" width="186.25" height="40" as="geometry"/>
                </mxCell>
            </root>
        </mxGraphModel>
    </diagram>
</mxfile>